<svg width="16" height="20" viewBox="0 0 16 20" fill="none" xmlns="http://www.w3.org/2000/svg">
<path d="M15.586 15.9161C15.5272 15.878 15.0847 15.568 14.6417 14.6303C13.8281 12.9084 13.6573 10.4827 13.6573 8.75098C13.6573 8.74344 13.6571 8.73598 13.6568 8.72848C13.648 6.43984 12.2775 4.46695 10.3165 3.58176V2.22797C10.3165 0.999453 9.31864 0 8.09216 0H7.90782C6.68134 0 5.68352 0.999453 5.68352 2.22797V3.58168C3.71587 4.46973 2.3427 6.45269 2.3427 8.75098C2.3427 10.4827 2.17192 12.9083 1.35829 14.6303C0.915282 15.568 0.472821 15.8779 0.413993 15.9161C0.166259 16.0308 0.0441104 16.2956 0.101103 16.564C0.158642 16.8351 0.412001 17.022 0.688681 17.022H4.98348C5.00747 18.6681 6.35098 20 8.00001 20C9.64903 20 10.9925 18.6681 11.0165 17.022H15.3113C15.588 17.022 15.8414 16.8351 15.8989 16.564C15.9558 16.2956 15.8337 16.0307 15.586 15.9161ZM6.85544 2.22797C6.85544 1.64668 7.32755 1.17379 7.90786 1.17379H8.09219C8.67251 1.17379 9.14462 1.64668 9.14462 2.22797V3.20129C8.77477 3.12484 8.39192 3.08461 7.99985 3.08461C7.6079 3.08461 7.22516 3.1248 6.85548 3.20117V2.22797H6.85544ZM8.00001 18.8262C6.99716 18.8262 6.17915 18.0209 6.15536 17.022H9.84462C9.82087 18.0208 9.00286 18.8262 8.00001 18.8262ZM10.3594 15.8481C10.3593 15.8481 2.02403 15.8481 2.02403 15.8481C2.1254 15.6902 2.22856 15.5113 2.3311 15.3091C3.11641 13.7606 3.51462 11.5541 3.51462 8.75098C3.51462 6.27375 5.52669 4.2584 7.99981 4.2584C10.4729 4.2584 12.485 6.27375 12.485 8.75293C12.485 8.76016 12.4851 8.76734 12.4854 8.77453C12.4876 11.5664 12.8858 13.765 13.6689 15.3091C13.7715 15.5113 13.8747 15.6902 13.976 15.8481H10.3594Z" fill="white"/>
</svg>
