<svg width="30" height="30" viewBox="0 0 30 30" fill="none" xmlns="http://www.w3.org/2000/svg">
<circle cx="15" cy="15" r="14.5" stroke="white"/>
<g clip-path="url(#clip0)">
<path d="M16.0803 22.9688H13.513C13.0842 22.9688 12.7353 22.6206 12.7353 22.1926V16.4133H11.2375C10.8087 16.4133 10.4599 16.0651 10.4599 15.6372V13.1608C10.4599 12.7328 10.8087 12.3846 11.2375 12.3846H12.7353V11.1445C12.7353 9.91492 13.1222 8.86877 13.854 8.11938C14.5891 7.36658 15.6163 6.96875 16.8247 6.96875L18.7827 6.97192C19.2108 6.97266 19.559 7.3208 19.559 7.74805V10.0474C19.559 10.4753 19.2103 10.8235 18.7816 10.8235L17.4633 10.824C17.0613 10.824 16.9589 10.9044 16.937 10.9291C16.9009 10.97 16.858 11.0856 16.858 11.4048V12.3845H18.6825C18.8199 12.3845 18.9529 12.4183 19.0673 12.4821C19.314 12.6196 19.4674 12.8798 19.4674 13.1609L19.4664 15.6373C19.4664 16.0651 19.1176 16.4132 18.6887 16.4132H16.858V22.1926C16.858 22.6206 16.5091 22.9688 16.0803 22.9688ZM13.6752 22.0308H15.9181V15.9934C15.9181 15.7076 16.1511 15.4752 16.4373 15.4752H18.5266L18.5274 13.3226H16.4372C16.1509 13.3226 15.9181 13.0902 15.9181 12.8044V11.4048C15.9181 11.0383 15.9554 10.6216 16.2325 10.3084C16.5674 9.92969 17.0952 9.88599 17.4631 9.88599L18.6191 9.8855V7.90967L16.824 7.90674C14.882 7.90674 13.6752 9.14746 13.6752 11.1445V12.8044C13.6752 13.0901 13.4423 13.3226 13.1561 13.3226H11.3997V15.4752H13.1561C13.4423 15.4752 13.6752 15.7076 13.6752 15.9934V22.0308ZM18.7808 7.90991H18.781H18.7808Z" fill="white"/>
</g>
<defs>
<clipPath id="clip0">
<rect x="7" y="7" width="16" height="16" fill="white"/>
</clipPath>
</defs>
</svg>
