<svg width="30" height="30" viewBox="0 0 30 30" fill="none" xmlns="http://www.w3.org/2000/svg">
<circle cx="15" cy="15" r="14.5" stroke="white"/>
<path d="M18.6689 7H11.331C8.94287 7 7 8.94287 7 11.331V18.669C7 21.0571 8.94287 23 11.331 23H18.669C21.0571 23 23 21.0571 23 18.669V11.331C23 8.94287 21.0571 7 18.6689 7V7ZM22.062 18.669C22.062 20.5399 20.5399 22.062 18.6689 22.062H11.331C9.46008 22.062 7.93799 20.5399 7.93799 18.669V11.331C7.93799 9.46008 9.46008 7.93799 11.331 7.93799H18.669C20.5399 7.93799 22.062 9.46008 22.062 11.331V18.669Z" fill="white"/>
<path d="M15 10.6251C12.5876 10.6251 10.6251 12.5876 10.6251 15C10.6251 17.4123 12.5876 19.3749 15 19.3749C17.4123 19.3749 19.3749 17.4123 19.3749 15C19.3749 12.5876 17.4123 10.6251 15 10.6251ZM15 18.4369C13.105 18.4369 11.5631 16.8951 11.5631 15C11.5631 13.105 13.105 11.5631 15 11.5631C16.8951 11.5631 18.4369 13.105 18.4369 15C18.4369 16.8951 16.8951 18.4369 15 18.4369Z" fill="white"/>
<path d="M19.4795 9.07141C18.7666 9.07141 18.1868 9.65137 18.1868 10.3641C18.1868 11.077 18.7666 11.657 19.4795 11.657C20.1924 11.657 20.7723 11.077 20.7723 10.3641C20.7723 9.65124 20.1924 9.07141 19.4795 9.07141ZM19.4795 10.7189C19.2839 10.7189 19.1248 10.5597 19.1248 10.3641C19.1248 10.1685 19.2839 10.0094 19.4795 10.0094C19.6752 10.0094 19.8343 10.1685 19.8343 10.3641C19.8343 10.5597 19.6752 10.7189 19.4795 10.7189Z" fill="white"/>
</svg>
