<svg width="15" height="20" viewBox="0 0 15 20" fill="none" xmlns="http://www.w3.org/2000/svg">
<path d="M14.2905 5.3932H11.6606V4.31475C11.6606 2.27157 10.0041 0.615051 7.9609 0.615051C5.91758 0.615051 4.26107 2.27157 4.26107 4.31475V5.3932H1.41386C1.17881 5.39386 0.988216 5.58419 0.987549 5.8195V17.2338C0.988083 18.4108 1.942 19.3647 3.11882 19.3651H12.5897C13.7666 19.3647 14.7206 18.4108 14.7208 17.2338V5.8195C14.7182 5.58339 14.5264 5.3936 14.2905 5.3932ZM5.10928 4.31048C5.10928 2.73805 6.3842 1.46313 7.95649 1.46313C9.52919 1.46313 10.8038 2.73805 10.8038 4.31048V5.38892H5.10928V4.31048ZM13.8642 17.2338C13.8621 17.9394 13.2908 18.5106 12.5856 18.5126H3.11468C2.40915 18.5106 1.8379 17.9394 1.83589 17.2338V6.24568H4.2568V7.98041C4.2568 8.21585 4.4478 8.40671 4.68297 8.40671C4.91842 8.40671 5.10928 8.21585 5.10928 7.98041V6.24568H10.8081V7.98041C10.8081 8.21585 10.999 8.40671 11.2344 8.40671C11.4696 8.40671 11.6606 8.21585 11.6606 7.98041V6.24568H13.8642V17.2338Z" fill="white"/>
</svg>
