<svg width="30" height="30" viewBox="0 0 30 30" fill="none" xmlns="http://www.w3.org/2000/svg">
<circle cx="15" cy="15" r="14.5" stroke="white"/>
<g clip-path="url(#clip0)">
<path d="M7.27661 14.464L11.1893 16.414C11.3406 16.4887 11.5193 16.4833 11.6639 16.3987L15.1466 14.374L13.0386 16.242C12.9313 16.3373 12.8699 16.4733 12.8699 16.6167V21.1667C12.8699 21.6467 13.4826 21.8487 13.7699 21.4673L15.4613 19.2187L19.6439 21.6007C19.9373 21.7693 20.3133 21.6 20.3813 21.2647L22.9899 8.26468C23.0679 7.87401 22.6793 7.55534 22.3179 7.70068L7.31794 13.5507C6.91528 13.708 6.88928 14.2713 7.27661 14.464ZM21.8299 8.96468L19.5373 20.3893L15.5739 18.132C15.3579 18.0087 15.0799 18.0633 14.9266 18.266L13.8699 19.6707V16.8413L19.5706 11.7907C20.0219 11.3913 19.5033 10.6813 18.9879 10.984L11.3946 15.3987L8.73328 14.0727L21.8299 8.96468Z" fill="white"/>
</g>
<defs>
<clipPath id="clip0">
<rect x="7" y="7" width="16" height="16" fill="white"/>
</clipPath>
</defs>
</svg>
