<svg width="30" height="30" viewBox="0 0 30 30" fill="none" xmlns="http://www.w3.org/2000/svg">
<circle cx="15" cy="15" r="14.5" stroke="white"/>
<g clip-path="url(#clip0)">
<path d="M15.0967 20C17.4113 20 16.586 18.5347 16.7647 18.1133C16.762 17.7987 16.7593 17.496 16.77 17.312C16.9167 17.3533 17.2627 17.5287 17.9773 18.2233C19.0807 19.3367 19.3627 20 20.254 20H21.8947C22.4147 20 22.6853 19.7847 22.8207 19.604C22.9513 19.4293 23.0793 19.1227 22.9393 18.6453C22.5733 17.496 20.4387 15.5113 20.306 15.302C20.326 15.2633 20.358 15.212 20.3747 15.1853H20.3733C20.7947 14.6287 22.4027 12.2193 22.6393 11.2553C22.64 11.254 22.6407 11.252 22.6407 11.25C22.7687 10.81 22.6513 10.5247 22.53 10.3633C22.3473 10.122 22.0567 10 21.664 10H20.0233C19.474 10 19.0573 10.2767 18.8467 10.7813C18.494 11.678 17.5033 13.522 16.7607 14.1747C16.738 13.25 16.7533 12.544 16.7653 12.0193C16.7893 10.996 16.8667 10 15.8047 10H13.226C12.5607 10 11.924 10.7267 12.6133 11.5893C13.216 12.3453 12.83 12.7667 12.96 14.864C12.4533 14.3207 11.552 12.8533 10.9147 10.978C10.736 10.4707 10.4653 10.0007 9.70333 10.0007H8.06267C7.39733 10.0007 7 10.3633 7 10.9707C7 12.3347 10.0193 20 15.0967 20ZM9.70333 11.0007C9.848 11.0007 9.86267 11.0007 9.97 11.3053C10.6227 13.2273 12.0867 16.0713 13.156 16.0713C13.9593 16.0713 13.9593 15.248 13.9593 14.938L13.9587 12.47C13.9147 11.6533 13.6173 11.2467 13.422 11L15.7607 11.0027C15.762 11.014 15.7473 13.7327 15.7673 14.3913C15.7673 15.3267 16.51 15.8627 17.6693 14.6893C18.8927 13.3087 19.7387 11.2447 19.7727 11.1607C19.8227 11.0407 19.866 11 20.0233 11H21.664H21.6707C21.67 11.002 21.67 11.004 21.6693 11.006C21.5193 11.706 20.0387 13.9367 19.5433 14.6293C19.5353 14.64 19.528 14.6513 19.5207 14.6627C19.3027 15.0187 19.1253 15.412 19.5507 15.9653H19.5513C19.59 16.012 19.6907 16.1213 19.8373 16.2733C20.2933 16.744 21.8573 18.3533 21.996 18.9933C21.904 19.008 21.804 18.9973 20.254 19.0007C19.924 19.0007 19.666 18.5073 18.6813 17.514C17.796 16.6527 17.2213 16.3007 16.698 16.3007C15.682 16.3007 15.756 17.1253 15.7653 18.1227C15.7687 19.204 15.762 18.862 15.7693 18.93C15.71 18.9533 15.54 19 15.0967 19C10.8667 19 8.112 12.286 8.006 11.0027C8.04267 10.9993 8.54733 11.0013 9.70333 11.0007Z" fill="white"/>
</g>
<defs>
<clipPath id="clip0">
<rect x="7" y="7" width="16" height="16" fill="white"/>
</clipPath>
</defs>
</svg>
