<svg width="30" height="30" viewBox="0 0 30 30" fill="none" xmlns="http://www.w3.org/2000/svg">
<g clip-path="url(#clip0)">
<circle cx="15" cy="15" r="14.5" stroke="white"/>
<path d="M17.5403 12.4519L17.5402 12.452L17.5486 12.4602C18.8453 13.7267 20.3071 14.3957 22.2726 14.772C22.753 14.8639 23.2656 14.9388 23.8152 15.0008C23.2656 15.0628 22.753 15.1376 22.2726 15.2296C20.3072 15.6058 18.8453 16.2746 17.5487 17.5408L17.5486 17.5407L17.5403 17.5492C16.2742 18.8459 15.6052 20.3077 15.2289 22.2732C15.1369 22.7539 15.062 23.2668 15 23.8167C14.9379 23.2667 14.863 22.7539 14.771 22.2732C14.3947 20.3077 13.7257 18.8459 12.4596 17.5492L12.4597 17.5491L12.4512 17.5408C11.1545 16.2746 9.69272 15.6058 7.72726 15.2296C7.24684 15.1376 6.73426 15.0628 6.18467 15.0008C6.73427 14.9388 7.24685 14.8639 7.72727 14.772C9.69275 14.3957 11.1546 13.7267 12.4512 12.4602L12.4513 12.4603L12.4596 12.4519C13.7257 11.1555 14.3947 9.69385 14.771 7.72842C14.863 7.24775 14.9379 6.73488 15 6.18495C15.062 6.73488 15.1369 7.24775 15.2289 7.72842C15.6052 9.69384 16.2742 11.1555 17.5403 12.4519Z" stroke="white"/>
</g>
<defs>
<clipPath id="clip0">
<rect width="30" height="30" fill="white"/>
</clipPath>
</defs>
</svg>
